<svg width="90" height="90" viewBox="0 0 90 90" fill="none" xmlns="http://www.w3.org/2000/svg">
    <path fill-rule="evenodd" clip-rule="evenodd" d="M33.1429 85.0108L27.3301 75.0754C26.9551 74.5183 26.3926 74.1469 25.7363 74.1469H12.7982L30.1759 47.093L35.5199 48.0216L39.6451 55.5428C40.4889 57.307 42.5515 58.0498 44.4265 57.307L48.3642 55.5428L50.2393 58.7927L33.1429 85.0108Z" fill="white"/>
    <path fill-rule="evenodd" clip-rule="evenodd" d="M29.4676 45.4806L36.4669 46.6967L40.9513 54.8729L40.9689 54.9097C41.4505 55.9167 42.6531 56.4167 43.8592 55.9533L48.9732 53.662L51.9605 58.8396L33.0752 87.8011L26.0917 75.8646C26.0149 75.7582 25.9391 75.6939 25.8811 75.6589C25.8232 75.6241 25.7783 75.6143 25.7363 75.6143H10.1116L29.4676 45.4806ZM30.8842 48.7055L15.4848 72.6795H25.7363C26.9931 72.6795 27.969 73.3968 28.5474 74.256L28.5733 74.2945L33.2105 82.2206L48.5181 58.7457L47.7552 57.4236L44.997 58.6593L44.967 58.6712C42.4452 59.6703 39.5543 58.7001 38.3405 56.2156L34.5729 49.3464L30.8842 48.7055Z" fill="#FB6900"/>
    <path fill-rule="evenodd" clip-rule="evenodd" d="M62.7466 74.4919L56.6971 85.122L35.5398 54.2135C35.4422 53.9236 35.3446 53.7303 35.1495 53.5371L33.0029 49.7682L33.6859 49.4783L41.6869 53.3438C42.2724 53.6337 42.8578 53.7303 43.4432 53.7303C44.8093 53.7303 46.1753 53.0539 46.8583 51.7976L51.2491 43.97L57.1035 42.907L77.8705 73.5255H64.4054C63.7224 73.5255 63.0394 73.9121 62.7466 74.4919Z" fill="white"/>
    <path fill-rule="evenodd" clip-rule="evenodd" d="M57.7816 41.2925L80.6388 74.9929H64.4054C64.3347 74.9929 64.2449 75.015 64.1637 75.0618C64.0815 75.1093 64.0565 75.1533 64.0566 75.1532L64.0401 75.1859L56.8117 87.8873L34.214 54.8745L34.1491 54.6816C34.1287 54.621 34.1151 54.5874 34.1078 54.5706L33.974 54.4381L30.9118 49.0617L33.7251 47.8676L42.3317 52.0256L42.3381 52.0288C42.6762 52.1962 43.0276 52.2629 43.4432 52.2629C44.358 52.2629 45.1818 51.8092 45.5691 51.0967L45.5738 51.0882L50.3073 42.6496L57.7816 41.2925ZM52.191 45.2904L48.1424 52.5078C47.1623 54.3017 45.2574 55.1977 43.4432 55.1977C42.6901 55.1977 41.873 55.0719 41.0426 54.6622L36.1262 52.2869L36.3418 52.6655C36.5913 52.9552 36.7437 53.2497 36.8558 53.5383L56.5824 82.3566L61.4562 73.7925C62.0347 72.6864 63.247 72.0581 64.4054 72.0581H75.1022L56.4255 44.5215L52.191 45.2904Z" fill="#FB6900"/>
    <path fill-rule="evenodd" clip-rule="evenodd" d="M44.8065 57.707L36.0718 62.3717L31.2698 53.7701L21.3755 53.0169L22.0309 43.2094L14.1185 37.2774L20.0231 29.3777L16.6046 20.1504L25.8839 16.6667L28.0447 7.07353L37.7524 9.11183L44.8065 2.19867L51.8606 9.11183L61.5683 7.07353L63.7291 16.6667L73.0083 20.1504L69.5898 29.3777L75.4945 37.2774L67.582 43.2094L68.2374 53.0169L58.3432 53.7701L53.5412 62.3717L44.8065 57.707Z" fill="white"/>
    <path fill-rule="evenodd" clip-rule="evenodd" d="M44.8065 0.144104L52.3271 7.5145L62.682 5.34031L64.9865 15.5714L74.8919 19.2901L71.2432 29.1388L77.5471 37.5726L69.0992 43.9059L69.7985 54.3697L59.2403 55.1735L54.1204 64.3446L44.8065 59.3706L35.4926 64.3446L30.3727 55.1735L19.8145 54.3697L20.5137 43.9059L12.0659 37.5726L18.3697 29.1388L14.7211 19.2901L24.6264 15.5714L26.9309 5.34031L37.2858 7.5145L44.8065 0.144104ZM44.8065 4.25327L38.2189 10.7092L29.1584 8.80679L27.1413 17.762L18.4882 21.0107L21.6765 29.6167L16.1711 36.9823L23.5481 42.5129L22.9366 51.6641L32.1669 52.3668L36.651 60.3989L44.8065 56.0435L52.962 60.3989L57.446 52.3668L66.6763 51.6641L66.0648 42.5129L73.4419 36.9823L67.9364 29.6167L71.1248 21.0107L62.4716 17.762L60.4545 8.80679L51.394 10.7092L44.8065 4.25327Z" fill="#FB6900"/>
</svg>
