<svg width="90" height="90" viewBox="0 0 90 90" fill="none" xmlns="http://www.w3.org/2000/svg">
    <path fill-rule="evenodd" clip-rule="evenodd" d="M80.4197 60.61C74.3368 74.4561 60.5009 84.1304 44.4022 84.1304C23.338 84.1304 6.14219 67.5675 5.12783 46.7547L2.59187 49.7794C2.07119 50.4004 1.14566 50.4817 0.524643 49.961C-0.0963745 49.4404 -0.177711 48.5148 0.342972 47.8938L6.52075 40.5255L13.7526 47.2681C14.3453 47.8207 14.3779 48.7492 13.8252 49.342C13.2726 49.9347 12.344 49.9673 11.7513 49.4146L8.03278 45.9477C8.63453 65.5166 24.6873 81.1956 44.4022 81.1956C59.295 81.1956 72.1013 72.2482 77.7327 59.4296C78.0587 58.6876 78.9244 58.3504 79.6664 58.6763C80.4084 59.0023 80.7456 59.868 80.4197 60.61ZM48.1139 57.4344H40.5931V63.6082H36.3051V57.4344H31.6579V53.8872H36.3051V50.8115H31.6579V47.2868H36.3051V30.9205H48.3609C51.8631 30.9205 54.6394 31.8111 56.6899 33.5921C58.7403 35.3732 59.7656 37.7829 59.7656 40.8211C59.7656 44.0091 58.7778 46.4711 56.8021 48.2073C54.8415 49.9285 52.0502 50.7966 48.4282 50.8115H40.5931V53.8872H48.1139V57.4344ZM40.5931 47.2868H48.3609C50.6807 47.2868 52.4468 46.7405 53.6591 45.648C54.8714 44.5554 55.4776 42.9614 55.4776 40.866C55.4776 38.9652 54.849 37.4311 53.5918 36.2637C52.3345 35.0813 50.6358 34.4827 48.4956 34.4677H40.5931V47.2868ZM8.38619 29.8579C14.469 16.0118 28.305 6.33744 44.4037 6.33744C65.5496 6.33744 82.797 23.029 83.6891 43.9554L86.9348 40.3992C87.4811 39.8006 88.4092 39.7582 89.0078 40.3045C89.6064 40.8508 89.6488 41.779 89.1025 42.3776L82.3166 49.8128L74.363 43.5304C73.727 43.028 73.6187 42.1053 74.121 41.4693C74.6233 40.8334 75.5461 40.725 76.1821 41.2274L80.782 44.8608C80.3573 25.1335 64.2328 9.27222 44.4037 9.27222C29.5109 9.27222 16.7046 18.2196 11.0731 31.0383C10.7471 31.7802 9.88142 32.1175 9.13944 31.7915C8.39747 31.4656 8.06023 30.5998 8.38619 29.8579Z" fill="#FB6900"/>
</svg>
