<svg width="69" height="80" viewBox="0 0 69 80" fill="none" xmlns="http://www.w3.org/2000/svg">
    <g clip-path="url(#clip0_2_706)">
        <path d="M65.9721 14.7987C55.3788 11.8962 44.7233 7.3766 35.1575 1.72878C34.6493 1.42878 34.0188 1.42878 33.5108 1.72878C23.669 7.53886 13.5893 11.8139 2.69536 14.7987C1.9916 14.9913 1.50378 15.631 1.50378 16.3608V32.9091C1.50378 49.9501 9.36529 61.2301 15.9605 67.6919C23.0606 74.6491 31.3313 78.4964 34.3342 78.4964C37.3367 78.4964 45.6074 74.6491 52.7075 67.6919C59.3026 61.2303 67.1636 49.9503 67.1636 32.9091V16.3607C67.1636 15.631 66.6758 14.9913 65.9721 14.7987Z" fill="white" stroke="#FB6900" stroke-width="3" stroke-linecap="round"/>
        <path d="M23.1579 41.25L33.4046 48.9233L48.8551 29.7745" stroke="#FB6900" stroke-width="3" stroke-linecap="round"/>
    </g>
    <defs>
        <clipPath id="clip0_2_706">
            <rect width="68.7218" height="80" fill="white"/>
        </clipPath>
    </defs>
</svg>
