<svg width="126" height="35" viewBox="0 0 126 35" fill="none" xmlns="http://www.w3.org/2000/svg" xmlns:xlink="http://www.w3.org/1999/xlink">
    <path d="M1.1579 11.2907L11.4396 1.14282C9.09878 2.02495 6.97298 3.38483 5.20123 5.13352C3.42947 6.88222 2.05166 8.98034 1.1579 11.2907Z" fill="#F5702C"/>
    <path d="M17.7503 0C16.9118 0.00124832 16.0744 0.0600794 15.2442 0.176067L0.17947 15.0457C0.0604284 15.8646 0.000454142 16.6909 0 17.5181C0 17.6793 0.00756802 17.8383 0.0118926 17.9994L18.2379 0.0117378C18.0757 0.00746951 17.9135 0 17.7503 0Z" fill="#F5702C"/>
    <path d="M23.0846 0.806722C22.3388 0.575973 21.5781 0.394875 20.8077 0.264648L0.265961 20.539C0.398025 21.2994 0.581509 22.0501 0.815183 22.7863L23.0846 0.806722Z" fill="#F5702C"/>
    <path d="M26.9724 2.54826C26.3759 2.19232 25.7586 1.87163 25.1236 1.58789L1.60547 24.7967C1.8925 25.4233 2.21743 26.0323 2.5785 26.6204L26.9724 2.54826Z" fill="#F5702C"/>
    <path d="M30.1499 4.98955C29.6708 4.52871 29.1654 4.09513 28.6363 3.69092L3.73972 28.2677C4.14991 28.7897 4.58955 29.2885 5.05655 29.7617L30.1499 4.98955Z" fill="#F5702C"/>
    <path d="M32.6884 8.06275C32.3229 7.50204 31.9258 6.96197 31.4992 6.44507L6.52469 31.0945C7.04833 31.5162 7.59592 31.9081 8.16479 32.2682L32.6884 8.06275Z" fill="#F5702C"/>
    <path d="M34.5329 11.82C34.2993 11.1459 34.0238 10.4866 33.708 9.84595L9.97574 33.2693C10.6255 33.5804 11.2938 33.8523 11.9769 34.0834L34.5329 11.82Z" fill="#F5702C"/>
    <path d="M35.4616 16.4799C35.4135 15.6495 35.3051 14.8236 35.1373 14.0085L14.1944 34.6799C15.0195 34.8454 15.8556 34.9524 16.6962 35L35.4616 16.4799Z" fill="#F5702C"/>
    <path d="M34.6572 22.8546C35.0289 21.7076 35.2793 20.5257 35.4043 19.3279L19.5839 34.9424C20.7976 34.8194 21.9951 34.5723 23.1571 34.205L34.6572 22.8546Z" fill="#F5702C"/>
    <path d="M52.0918 24.5854C51.1493 24.5906 50.2151 24.4112 49.3434 24.0577C48.4717 23.7041 47.6797 23.1833 47.0133 22.5255C46.3469 21.8677 45.8194 21.0859 45.4613 20.2255C45.1031 19.365 44.9215 18.443 44.927 17.5128C44.927 13.5646 48.0894 10.3848 52.0918 10.3848C56.0942 10.3848 59.2576 13.5625 59.2576 17.5128C59.2629 18.4431 59.0812 19.3651 58.7229 20.2255C58.3647 21.086 57.8371 21.8678 57.1706 22.5255C56.5041 23.1833 55.7121 23.7041 54.8403 24.0577C53.9685 24.4112 53.0343 24.5906 52.0918 24.5854ZM52.0918 12.504C49.2202 12.504 47.2471 14.7651 47.2471 17.4851C47.2471 20.2328 49.2202 22.4662 52.0918 22.4662C54.9633 22.4662 56.9364 20.2328 56.9364 17.4851C56.9364 14.7651 54.9633 12.504 52.0918 12.504Z" fill="#F5702C"/>
    <path d="M68.6257 24.213L65.5229 18.5724H64.5931V24.213H62.274V10.7561H64.8255C67.4365 10.7561 70.2507 11.4156 70.2507 14.6499C70.2507 16.5407 69.0322 17.6558 67.7846 18.1146L71.4108 24.213H68.6257ZM64.8255 12.8753H64.5931V16.5685L64.8547 16.5407C66.6245 16.5407 67.843 16.2825 67.843 14.7363C67.8138 13.0759 66.6829 12.8753 64.8255 12.8753Z" fill="#F5702C"/>
    <path d="M82.3455 24.213L81.0708 21.2348H75.5873L74.3396 24.213H71.7881L77.9377 10.7561H78.7496L84.87 24.213H82.3455ZM78.3139 14.7939H78.2566L76.3419 19.4314H80.287L78.3139 14.7939Z" fill="#F5702C"/>
    <path d="M97.9518 24.213L89.3654 15.0799V24.213H87.0452V10.7561H88.2053L96.7626 19.9468V10.7561H99.0838V24.213H97.9518Z" fill="#F5702C"/>
    <path d="M109.088 24.5853C105.026 24.5853 102.096 21.2923 102.096 17.5426C102.096 13.6777 105.026 10.3857 109.203 10.3857C111.727 10.3857 113.497 11.4443 115.265 13.5635L113.526 15.0809C112.161 13.3053 111.03 12.5049 109.174 12.5049C106.331 12.5049 104.474 14.8803 104.504 17.5426C104.504 20.1196 106.505 22.4383 109.088 22.4383C111.142 22.4383 112.916 21.0074 113.177 19.1752H109.176V17.0549H115.731C115.732 21.3499 113.529 24.5853 109.088 24.5853Z" fill="#F5702C"/>
    <path d="M118.777 24.213V10.7561H126V12.8753H121.098V15.9698H126V18.089H121.098V22.097H126V24.2162L118.777 24.213Z" fill="#F5702C"/>
</svg>
