<svg width="38" height="44" viewBox="0 0 38 44" fill="none" xmlns="http://www.w3.org/2000/svg">
    <g filter="url(#filter0_d_2_944)">
        <path fill-rule="evenodd" clip-rule="evenodd" d="M32.0363 17.2586L31.4993 18.1022L31.1342 17.8698L6.85694 34.3173L6.29605 33.4894L30.2151 17.2846L7.68475 2.94072L8.2218 2.09717L31.1172 16.6734L31.4754 16.4307L32.0363 17.2586Z" fill="#F5702C"/>
        <path d="M32.0363 17.2586L32.8799 17.7957L33.2326 17.2415L32.8642 16.6977L32.0363 17.2586ZM31.4993 18.1022L30.9622 18.9457L31.8058 19.4828L32.3428 18.6392L31.4993 18.1022ZM31.1342 17.8698L31.6713 17.0262L31.1172 16.6734L30.5733 17.0419L31.1342 17.8698ZM6.85694 34.3173L6.02904 34.8782L6.58993 35.7061L7.41782 35.1452L6.85694 34.3173ZM6.29605 33.4894L5.73516 32.6615L4.90727 33.2224L5.46816 34.0503L6.29605 33.4894ZM30.2151 17.2846L30.776 18.1125L32.0363 17.2586L30.7521 16.441L30.2151 17.2846ZM7.68475 2.94072L6.8412 2.40368L6.30415 3.24723L7.14771 3.78428L7.68475 2.94072ZM8.2218 2.09717L8.75884 1.25362L7.91529 0.716573L7.37824 1.56013L8.2218 2.09717ZM31.1172 16.6734L30.5801 17.517L31.1342 17.8698L31.678 17.5013L31.1172 16.6734ZM31.4754 16.4307L32.3033 15.8698L31.7424 15.0419L30.9145 15.6028L31.4754 16.4307ZM31.1928 16.7216L30.6557 17.5651L32.3428 18.6392L32.8799 17.7957L31.1928 16.7216ZM32.0363 17.2586L31.6713 17.0262L30.5972 18.7133L30.9622 18.9457L32.0363 17.2586ZM30.5733 17.0419L6.29605 33.4894L7.41782 35.1452L31.6951 18.6976L30.5733 17.0419ZM7.68483 33.7564L7.12394 32.9285L5.46816 34.0503L6.02904 34.8782L7.68483 33.7564ZM6.85694 34.3173L30.776 18.1125L29.6542 16.4567L5.73516 32.6615L6.85694 34.3173ZM30.7521 16.441L8.2218 2.09717L7.14771 3.78428L29.678 18.1281L30.7521 16.441ZM8.5283 3.47777L9.06535 2.63422L7.37824 1.56013L6.8412 2.40368L8.5283 3.47777ZM7.68475 2.94072L30.5801 17.517L31.6542 15.8299L8.75884 1.25362L7.68475 2.94072ZM31.678 17.5013L32.0363 17.2586L30.9145 15.6028L30.5563 15.8455L31.678 17.5013ZM30.6475 16.9916L31.2084 17.8195L32.8642 16.6977L32.3033 15.8698L30.6475 16.9916Z" fill="#F5702C"/>
    </g>
    <defs>
        <filter id="filter0_d_2_944" x="0.907288" y="0.716553" width="36.3253" height="42.9895" filterUnits="userSpaceOnUse" color-interpolation-filters="sRGB">
            <feFlood flood-opacity="0" result="BackgroundImageFix"/>
            <feColorMatrix in="SourceAlpha" type="matrix" values="0 0 0 0 0 0 0 0 0 0 0 0 0 0 0 0 0 0 127 0" result="hardAlpha"/>
            <feOffset dy="4"/>
            <feGaussianBlur stdDeviation="2"/>
            <feComposite in2="hardAlpha" operator="out"/>
            <feColorMatrix type="matrix" values="0 0 0 0 0 0 0 0 0 0 0 0 0 0 0 0 0 0 0.25 0"/>
            <feBlend mode="normal" in2="BackgroundImageFix" result="effect1_dropShadow_2_944"/>
            <feBlend mode="normal" in="SourceGraphic" in2="effect1_dropShadow_2_944" result="shape"/>
        </filter>
    </defs>
</svg>
