<svg  width="38" height="38" viewBox="0 0 38 38" fill="none" xmlns="http://www.w3.org/2000/svg" xmlns:xlink="http://www.w3.org/1999/xlink">
    <path fill-rule="evenodd" clip-rule="evenodd" d="M19 1C14.1115 1 13.4985 1.02072 11.5786 1.10832C9.66273 1.1957 8.35425 1.50002 7.20932 1.94501C6.02566 2.40494 5.02184 3.02042 4.0211 4.0211C3.02042 5.02184 2.40494 6.02566 1.94501 7.20932C1.50002 8.35425 1.1957 9.66273 1.10832 11.5786C1.02072 13.4985 1 14.1115 1 19C1 23.8885 1.02072 24.5015 1.10832 26.4214C1.1957 28.3373 1.50002 29.6458 1.94501 30.7907C2.40494 31.9744 3.02042 32.9782 4.0211 33.9789C5.02184 34.9796 6.02566 35.5951 7.20932 36.0551C8.35425 36.5 9.66273 36.8043 11.5786 36.8917C13.4985 36.9793 14.1115 37 19 37C23.8885 37 24.5015 36.9793 26.4214 36.8917C28.3373 36.8043 29.6458 36.5 30.7907 36.0551C31.9743 35.5951 32.9782 34.9796 33.9789 33.9789C34.9796 32.9782 35.5951 31.9744 36.0551 30.7907C36.5 29.6458 36.8043 28.3373 36.8917 26.4214C36.9793 24.5015 37 23.8885 37 19C37 14.1115 36.9793 13.4985 36.8917 11.5786C36.8043 9.66273 36.5 8.35425 36.0551 7.20932C35.5951 6.02566 34.9796 5.02184 33.9789 4.0211C32.9782 3.02042 31.9743 2.40494 30.7907 1.94501C29.6458 1.50002 28.3373 1.1957 26.4214 1.10832C24.5015 1.02072 23.8885 1 19 1Z" stroke="#FE5B00" stroke-width="2"/>
    <path d="M19.0084 26.9938C23.4266 26.9938 27.0084 23.412 27.0084 18.9938C27.0084 14.5755 23.4266 10.9938 19.0084 10.9938C14.5901 10.9938 11.0084 14.5755 11.0084 18.9938C11.0084 23.412 14.5901 26.9938 19.0084 26.9938Z" stroke="#FE5B00" stroke-width="2"/>
    <path d="M31.0076 8.49379C31.0076 9.32222 30.3361 9.99379 29.5076 9.99379C28.6792 9.99379 28.0076 9.32222 28.0076 8.49379C28.0076 7.66536 28.6792 6.99379 29.5076 6.99379C30.3361 6.99379 31.0076 7.66536 31.0076 8.49379Z" fill="#333333" stroke="#FE5B00" stroke-width="2"/>
</svg>
