<svg width="69" height="66" viewBox="0 0 69 66" fill="none" xmlns="http://www.w3.org/2000/svg">
    <path d="M67.3507 60.0428V55.3252V13.3779C67.3507 12.0026 66.6631 11.3149 65.2877 11.3149H58.4111M6.83653 25.0681V13.3779C6.83653 12.0026 7.5242 11.3149 8.89952 11.3149H48.0962M6.83653 25.0681L9.56773 22.3369C9.95826 21.9464 10.5914 21.9464 10.9819 22.3369L15.0885 26.4435M6.83653 25.0681L1.36217 30.5425C0.968738 30.9359 0.972101 31.5749 1.36965 31.9641L6.83653 37.3171M6.83653 37.3171V53.2623C6.83653 54.6376 7.5242 55.3252 8.89952 55.3252H25.2278M6.83653 37.3171L25.2278 55.3252M25.2278 55.3252L32.9483 62.8849C33.34 63.2684 33.9674 63.2651 34.355 62.8775L42.5949 54.6376L37.3874 49.2681M48.0962 11.3149L57.0627 1.70796C57.431 1.31334 58.046 1.28224 58.4523 1.6377L62.4722 5.15512C62.8878 5.51881 62.9299 6.15057 62.5663 6.56621L58.4111 11.3149M48.0962 11.3149L39.1566 20.9422M58.4111 11.3149L44.6579 26.4435M44.6579 26.4435L36.406 29.8818M44.6579 26.4435L39.1566 20.9422M36.406 29.8818L39.1566 20.9422M36.406 29.8818H52.2222M15.0885 26.4435L10.4038 31.2571M15.0885 26.4435L20.7187 32.1935M20.7187 32.1935L15.7761 36.7584M20.7187 32.1935L26.5352 38.1337M26.5352 38.1337L21.9651 42.2597M26.5352 38.1337L32.18 43.8986M32.18 43.8986L28.154 47.761M32.18 43.8986L37.3874 49.2681M37.3874 49.2681L33.6553 53.2623" stroke="#151716" stroke-width="2" stroke-linecap="round"/>
    <path d="M57.0364 29.8818H60.4747" stroke="#151716" stroke-width="2" stroke-linecap="round"/>
    <path d="M63.5929 64.4829C68.7803 64.4829 68.4266 55.3115 63.5929 55.3115H56.6025V64.4829H63.5929Z" fill="#CACACA"/>
    <path d="M41.9073 55.3115C47.331 55.3115 52.9759 55.3115 56.6025 55.3115M56.6025 55.3115C58.7572 55.3115 62.0726 55.3115 63.5929 55.3115C68.4266 55.3115 68.7803 64.4829 63.5929 64.4829H56.6025V55.3115Z" stroke="#151716" stroke-width="2"/>
</svg>
